<?xml version="1.0" standalone="no"?><!DOCTYPE svg PUBLIC "-//W3C//DTD SVG 1.1//EN" "http://www.w3.org/Graphics/SVG/1.1/DTD/svg11.dtd"><svg t="1659615773300" class="icon" viewBox="0 0 1024 1024" version="1.1" xmlns="http://www.w3.org/2000/svg" p-id="1982" xmlns:xlink="http://www.w3.org/1999/xlink" width="200" height="200"><defs><style type="text/css">@font-face { font-family: feedback-iconfont; src: url("//at.alicdn.com/t/font_1031158_u69w8yhxdu.woff2?t=1630033759944") format("woff2"), url("//at.alicdn.com/t/font_1031158_u69w8yhxdu.woff?t=1630033759944") format("woff"), url("//at.alicdn.com/t/font_1031158_u69w8yhxdu.ttf?t=1630033759944") format("truetype"); }
</style></defs><path d="M844.373333 487.893333a392.32 392.32 0 0 0-76.373333 10.88v-87.68a64 64 0 0 0-64-64h-188.8a397.653333 397.653333 0 0 0 10.88-77.013333 113.28 113.28 0 0 0-110.506667-115.626667 113.493333 113.493333 0 0 0-110.72 115.626667 397.653333 397.653333 0 0 0 10.88 77.013333H128a64 64 0 0 0-64 64v394.453334a64 64 0 0 0 64 64h201.6A30.08 30.08 0 0 0 358.613333 832a377.386667 377.386667 0 0 1-11.093333-72.746667 70.613333 70.613333 0 0 1 68.053333-72.96 70.613333 70.613333 0 0 1 67.84 72.96 379.733333 379.733333 0 0 1-11.093333 72.746667 30.08 30.08 0 0 0 5.76 25.386667 29.653333 29.653333 0 0 0 23.253333 11.306666H704a64 64 0 0 0 64-64v-106.666666a392.32 392.32 0 0 0 76.373333 10.88 110.72 110.72 0 1 0 0-221.44z m0 178.773334a405.333333 405.333333 0 0 1-81.92-13.44 30.293333 30.293333 0 0 0-25.813333 5.546666A29.653333 29.653333 0 0 0 725.333333 682.666667v123.306666a21.333333 21.333333 0 0 1-21.333333 21.333334h-186.666667a364.586667 364.586667 0 0 0 8.746667-66.773334 113.28 113.28 0 0 0-110.506667-115.626666 113.493333 113.493333 0 0 0-110.72 115.626666 364.586667 364.586667 0 0 0 8.746667 66.773334H128a21.333333 21.333333 0 0 1-21.333333-21.333334V411.093333a21.333333 21.333333 0 0 1 21.333333-21.333333h203.946667a30.08 30.08 0 0 0 29.013333-37.333333 407.253333 407.253333 0 0 1-13.44-82.346667 70.613333 70.613333 0 0 1 68.053333-72.96 70.613333 70.613333 0 0 1 67.84 72.96 394.666667 394.666667 0 0 1-14.08 82.346667 30.08 30.08 0 0 0 29.013334 37.333333H704a21.333333 21.333333 0 0 1 21.333333 21.333333v103.893334a29.653333 29.653333 0 0 0 11.306667 23.466666 30.08 30.08 0 0 0 25.813333 5.546667 405.333333 405.333333 0 0 1 81.92-13.44 68.266667 68.266667 0 1 1 0 136.106667z" p-id="1983"></path></svg>